<svg xmlns="http://www.w3.org/2000/svg" width="64" height="64"><path d="M22.6 32q-4.6 0-8-3.3-3.2-3.3-3.2-8 0-4.6 3.3-7.9 3.3-3.3 8-3.3 4.6 0 7.9 3.3 3.3 3.3 3.3 8 0 4.6-3.3 7.9-3.3 3.3-8 3.3zm28.1 3.7h10.4q.3 0 .6.3t.3.7v5.6q0 .4-.3.7l-.6.2H50.7v10.4l-.2.6q-.3.3-.7.3h-5.6q-.4 0-.7-.3-.3-.3-.3-.6V43.2H33l-.6-.2q-.3-.3-.3-.7v-5.6q0-.4.3-.7.3-.3.6-.3h10.3V25.4q0-.3.3-.6t.7-.3h5.6q.4 0 .7.3l.2.6zm-21.5 6.6q0 1.5 1.1 2.7 1.1 1 2.6 1h7.5v7q-2 1.5-5 1.5H9.8q-3.5 0-5.7-2-2.1-2-2.1-5.6l.1-3 .4-3.2q.3-1.7.8-3.2.5-1.5 1.2-2.8.8-1.4 1.9-2.4 1-1 2.5-1.6 1.5-.6 3.2-.6.6 0 1.2.5 2.3 1.8 4.5 2.7 2.2.9 4.8.9 2.6 0 4.8-.9 2.3-.9 4.6-2.7.6-.5 1.1-.5 3.9 0 6.4 2.8h-6.6q-1.5 0-2.6 1.2-1.1 1-1.1 2.6z"/></svg>