<svg xmlns="http://www.w3.org/2000/svg" viewBox="0 0 57 57" width="64" height="64"><path d="M7.1 28.5A21.4 21.4 0 0 1 28.5 7.1m10.7 40A21.4 21.4 0 0 1 10 39m29.2-29A21.4 21.4 0 0 1 47 39.2" fill="none" stroke="#000" stroke-width="1.8" stroke-linecap="round" stroke-linejoin="round"/><circle cx="28.5" cy="7.1" r="4.4"/><circle cx="39.2" cy="-10" r="5" transform="rotate(90)"/><circle cx="39.2" cy="-47" r="5" transform="rotate(90)"/><path d="M28.5 22.3c-2 0-3.5 1.6-3.6 3.5v2.3h-1.3v6.6h9.8v-6.6h-1.3v-2.3c0-2-1.6-3.5-3.6-3.5zm0 1.7c1.1 0 1.8.9 1.8 1.8v2.3h-3.6v-2.3c0-1 .7-1.8 1.8-1.8z"/></svg>