<?xml version="1.0" encoding="utf-8"?>
<svg version="1.1" id="Capa_1" xmlns="http://www.w3.org/2000/svg" xmlns:xlink="http://www.w3.org/1999/xlink" x="0px" y="0px"
	 viewBox="5.4 90 601.3 612" enable-background="new 5.4 90 601.3 612" xml:space="preserve">
<g>
	<path fill="#424A60" d="M404.5,661C373.2,674,340,680.5,306,680.5c-72.2,0-141.6-30.6-190.3-84.1c-4-4.4-10.8-4.7-15.2-0.7
		c-4.4,4-4.7,10.8-0.7,15.2c52.8,57.9,128,91.1,206.2,91.1c36.9,0,72.8-7.1,106.7-21.2c5.5-2.3,8.1-8.5,5.8-14
		C416.2,661.3,409.9,658.7,404.5,661z"/>
	<path fill="#424A60" d="M244.6,172.5c5.8-1.4,9.3-7.2,7.9-13c-1.4-5.8-7.2-9.3-13-7.9C121.3,180.6,36.2,281.5,27.6,402.9
		c-0.4,5.9,4,11,10,11.5c0.3,0,0.5,0,0.8,0c5.6,0,10.3-4.3,10.7-10C57,292.4,135.6,199.2,244.6,172.5z"/>
</g>
<circle fill="#EBBA16" cx="306" cy="154.4" r="64.4"/>
<circle fill="#7383BF" cx="69.8" cy="551.7" r="64.4"/>
<circle fill="#43B05C" cx="542.2" cy="551.7" r="64.4"/>
<path fill="#CC1F1F" stroke="#F9F9F9" stroke-width="10" stroke-miterlimit="10" d="M522.8,204.8h-17.5v-34.6
	c0-27.5-21.7-50.2-49.2-50.2h-5.3c-27.5,0-49.4,22.7-49.4,50.2v34.6h-16.1c-10.7,0-19.4,8.7-19.4,19.4v99.2
	c0,10.7,8.7,19.5,19.4,19.5h137.5c10.7,0,19.4-8.7,19.4-19.5v-99.2C542.2,213.5,533.5,204.8,522.8,204.8z M473.9,204.8h-41v-34.6
	c0-10.1,7.9-18.8,18-18.8h5.3c10.1,0,17.8,8.6,17.8,18.8C473.9,170.2,473.9,204.8,473.9,204.8z"/>
</svg>
