<?xml version="1.0" encoding="utf-8"?>
<!-- Generator: Adobe Illustrator 18.0.0, SVG Export Plug-In . SVG Version: 6.00 Build 0)  -->
<!DOCTYPE svg PUBLIC "-//W3C//DTD SVG 1.1//EN" "http://www.w3.org/Graphics/SVG/1.1/DTD/svg11.dtd">
<svg version="1.1" id="Capa_1" xmlns="http://www.w3.org/2000/svg" xmlns:xlink="http://www.w3.org/1999/xlink" x="0px" y="0px"
	 viewBox="0 0 612 792" enable-background="new 0 0 612 792" xml:space="preserve">
<g>
	<path fill="#B7BFCE" d="M439.7,202.9c-4.6-2.8-10.7-1.4-13.5,3.2c-2.8,4.6-1.4,10.6,3.2,13.5c70.4,43.4,112.4,118.4,112.4,200.9
		c0,20.3-2.6,40.6-7.9,60.4c-1.4,5.3,1.7,10.6,7,12c0.8,0.2,1.7,0.3,2.5,0.3c4.3,0,8.4-2.9,9.5-7.3c5.6-21.4,8.6-43.5,8.6-65.5
		C561.5,331.2,515.9,249.9,439.7,202.9z"/>
	<path fill="#B7BFCE" d="M396.1,638.5c-28.6,11.9-59,17.9-90.1,17.9c-66.1,0-129.5-28-174.1-77c-3.7-4-9.9-4.3-13.9-0.7
		c-4,3.7-4.3,9.9-0.7,13.9c48.4,53,117.1,83.3,188.7,83.3c33.8,0,66.6-6.5,97.6-19.4c5-2.1,7.4-7.8,5.4-12.8
		C406.9,638.8,401.1,636.4,396.1,638.5z"/>
	<path fill="#B7BFCE" d="M249.8,191.5c5.3-1.3,8.5-6.6,7.2-11.9c-1.3-5.3-6.6-8.5-11.9-7.2C137,198.9,59.1,291.2,51.3,402.3
		c-0.4,5.5,3.7,10.1,9.1,10.4c0.3,0,0.5,0,0.7,0c5.1,0,9.4-4,9.8-9.1C78.1,301.2,150,215.9,249.8,191.5z"/>
</g>
<circle fill="#EBBA16" cx="306" cy="175" r="59"/>
<circle fill="#7383BF" cx="89.9" cy="538.5" r="59"/>
<circle fill="#43B05C" cx="522.1" cy="538.5" r="59"/>
<g>
	<g>
		<path fill="#424A60" stroke="#FFFFFF" stroke-width="8" stroke-miterlimit="10" d="M548.2,158.1c-3.5-3.5-9.2-3.5-12.7,0l-32,32
			c-39.6-18-81.9-13.6-122.2,12.7c-30,19.6-48.3,44.2-49,45.3c-2.4,3.3-2.3,7.8,0.2,11c17.1,21,35,37.3,53.3,48.7l-28.1,28.1
			c-3.5,3.5-3.5,9.2,0,12.7c1.7,1.7,4,2.6,6.3,2.6c2.3,0,4.6-0.9,6.3-2.6l177.8-177.8C551.7,167.4,551.7,161.7,548.2,158.1z
			 M430.7,262.9c-1.3-2.9-1.9-6.1-1.9-9.5c0-6.4,2.5-12.5,7.1-17.1c7.2-7.2,17.8-8.9,26.6-5.1L430.7,262.9z M475.8,217.9
			c-16.3-10.5-38.4-8.6-52.6,5.6c-8,8-12.3,18.6-12.3,29.8c0,8.2,2.3,16,6.7,22.8L399,294.6c-16.2-9.4-32.2-23.3-47.8-41.4
			c6.6-7.8,20.7-22.8,39.9-35.4c33.3-21.7,66.4-26.4,98.7-14L475.8,217.9z"/>
	</g>
</g>
<g>
	<g>
		<path fill="#424A60" stroke="#FFFFFF" stroke-width="8" stroke-miterlimit="10" d="M573.4,247.7c-12.3-15.2-25.1-28-38.1-38.1
			c-3.9-3-9.6-2.3-12.7,1.5c-3,3.9-2.3,9.5,1.5,12.6c10.3,8,20.6,18,30.6,29.7c-5.9,6.9-17.4,19.3-33,30.6
			c-30,21.8-60.3,29.7-90.1,23.4c-4.8-1-9.6,2.1-10.6,6.9c-1,4.8,2.1,9.6,6.9,10.6c7.7,1.6,15.5,2.4,23.4,2.4
			c11.8,0,23.7-1.8,35.5-5.5c15.5-4.8,31-12.8,45.9-23.7c25.2-18.4,40.2-38.8,40.9-39.6C576.1,255.4,576,250.9,573.4,247.7z"/>
	</g>
</g>
</svg>
