<?xml version="1.0" encoding="utf-8"?>
<svg version="1.1" id="Capa_1" xmlns="http://www.w3.org/2000/svg" xmlns:xlink="http://www.w3.org/1999/xlink" x="0px" y="0px"
	 viewBox="5.4 90 601.3 612" enable-background="new 5.4 90 601.3 612" xml:space="preserve">
<g>
	<path fill="#A7B2C4" d="M404.5,661C373.2,674,340,680.5,306,680.5c-72.2,0-141.6-30.6-190.3-84.1c-4-4.4-10.8-4.7-15.2-0.7
		c-4.4,4-4.7,10.8-0.7,15.2c52.8,57.9,128,91.1,206.2,91.1c36.9,0,72.8-7.1,106.7-21.2c5.5-2.3,8.1-8.5,5.8-14
		C416.2,661.3,409.9,658.7,404.5,661z"/>
	<path fill="#A7B2C4" d="M244.6,172.5c5.8-1.4,9.3-7.2,7.9-13c-1.4-5.8-7.2-9.3-13-7.9C121.3,180.6,36.2,281.5,27.6,402.9
		c-0.4,5.9,4,11,10,11.5c0.3,0,0.5,0,0.8,0c5.6,0,10.3-4.3,10.7-10C57,292.4,135.6,199.2,244.6,172.5z"/>
</g>
<circle fill="#EBBA16" cx="306" cy="154.4" r="64.4"/>
<circle fill="#7383BF" cx="69.8" cy="551.7" r="64.4"/>
<circle fill="#43B05C" cx="542.2" cy="551.7" r="64.4"/>
<g>
	<g>
		<path fill="#424A60" d="M567.4,169.4c-4-4-10.5-4-14.5,0l-36.4,36.4c-45.1-20.5-93.1-15.5-139,14.5
			c-34.2,22.3-54.9,50.3-55.8,51.5c-2.7,3.8-2.6,8.9,0.3,12.5c19.4,23.9,39.8,42.5,60.6,55.4l-32,32c-4,4-4,10.5,0,14.5
			c2,2,4.6,3,7.2,3c2.6,0,5.2-1,7.2-3l202.3-202.3C571.4,179.9,571.4,173.4,567.4,169.4z M433.8,288.6c-1.5-3.4-2.2-7-2.2-10.8
			c0-7.3,2.8-14.3,8.1-19.5c8.2-8.2,20.3-10.1,30.3-5.9L433.8,288.6z M485,237.4c-18.6-11.9-43.6-9.8-59.8,6.4
			c-9.1,9.1-14,21.1-14,33.9c0,9.3,2.7,18.2,7.6,25.9l-21.1,21.1c-18.5-10.7-36.7-26.5-54.3-47.1c7.6-8.9,23.5-26,45.4-40.2
			c37.9-24.7,75.5-30,112.2-16L485,237.4z"/>
	</g>
</g>
<g>
	<g>
		<path fill="#424A60" d="M596.1,271.3c-14-17.3-28.6-31.8-43.4-43.4c-4.5-3.5-10.9-2.7-14.4,1.8c-3.5,4.4-2.7,10.9,1.8,14.4
			c11.7,9.1,23.4,20.5,34.8,33.8c-6.7,7.8-19.8,21.9-37.5,34.8c-34.2,24.8-68.7,33.8-102.5,26.7c-5.5-1.2-11,2.4-12.1,7.9
			c-1.2,5.5,2.4,11,7.9,12.1c8.8,1.9,17.7,2.8,26.6,2.8c13.4,0,26.9-2.1,40.4-6.3c17.7-5.5,35.2-14.6,52.2-27
			c28.6-21,45.7-44.1,46.5-45.1C599.1,280.1,599,274.9,596.1,271.3z"/>
	</g>
</g>
</svg>
