<?xml version="1.0" encoding="iso-8859-1"?>
<svg version="1.1" id="Capa_1" xmlns="http://www.w3.org/2000/svg" xmlns:xlink="http://www.w3.org/1999/xlink" x="0px" y="0px"
	 viewBox="0 0 30 30" style="enable-background:new 0 0 30 30;" xml:space="preserve">
<g>
	<g>
		<path style="fill:#010002;" d="M20.381,5.52c0.064,0.034,0.133,0.067,0.193,0.105C21,5.856,21.48,6,22,6c1.658,0,3-1.343,3-3
			s-1.342-3-3-3c-1.656,0-3,1.343-3,3C19,4.06,19.553,4.985,20.381,5.52z"/>
		<path style="fill:#010002;" d="M6,18.001c0-2,0-10,0-10S6.005,7.551,6.238,7C4.159,7,2,7,2,7S0,7,0,9.001v7c0,2,2,2,2,2v10h6v-8
			C8,20.001,6,20.001,6,18.001z"/>
		<circle style="fill:#010002;" cx="14" cy="3" r="3"/>
		<path style="fill:#010002;" d="M6,6c0.52,0,1.001-0.144,1.427-0.376c0.059-0.036,0.125-0.068,0.188-0.103C8.446,4.988,9,4.062,9,3
			c0-1.657-1.343-3-3-3S3,1.343,3,3S4.343,6,6,6z"/>
		<path style="fill:#010002;" d="M28,15.352c0-2.262,0-6.351,0-6.351S28,7,26,7h-4.238C21.996,7.551,22,8.001,22,8.001
			s0,1.888,0,4.059c-0.328-0.036-0.662-0.059-1-0.059s-0.67,0.022-1,0.059c0-1.632,0-3.059,0-3.059S20,7,18,7c-0.5,0-8,0-8,0
			S8,7,8,9.001v7c0,2,2,2,2,2v10h5.35C16.895,29.249,18.859,30,21,30c4.971,0,9-4.027,9-8.999C30,18.859,29.248,16.896,28,15.352z
			 M21,28c-3.865-0.008-6.994-3.135-7-6.999c0.006-3.865,3.135-6.994,7-7c3.865,0.006,6.992,3.135,7,7
			C27.992,24.865,24.865,27.992,21,28z"/>
		<polygon style="fill:#010002;" points="22.002,16 20,16 20,20 16,20 16,22 20,22 20,26 22.002,26 22.002,22 26,22 26,20 
			22.002,20 		"/>
	</g>
</g>
</svg>
