<svg xmlns="http://www.w3.org/2000/svg" viewBox="0 0 57 57" width="64" height="64"><path d="M12 42.2a21.4 21.4 0 0 0 12.7 7.3 21.4 21.4 0 0 0 .3 0 21.4 21.4 0 0 0 1.6.3 21.4 21.4 0 0 0 1.4 0 21.4 21.4 0 0 0 .5 0 21.4 21.4 0 0 0 .1 0 21.4 21.4 0 0 0 1.2 0 21.4 21.4 0 0 0 .3 0 21.4 21.4 0 0 0 9.1-2.7h-.1a21.4 21.4 0 0 0 7.9-8v.1a21.4 21.4 0 0 0 .1-.2 21.4 21.4 0 0 0 .3-.6 21.4 21.4 0 0 0 .5-1 21.4 21.4 0 0 0 .5-1.1 21.4 21.4 0 0 0 .2-.7 21.4 21.4 0 0 0 .5-1.4 21.4 21.4 0 0 0 .1-.6 21.4 21.4 0 0 0 .3-1.5 21.4 21.4 0 0 0 .1-.6 21.4 21.4 0 0 0 .2-1.6 21.4 21.4 0 0 0 0-.5 21.4 21.4 0 0 0 0-.9 21.4 21.4 0 0 0-.1-2.8 21.4 21.4 0 0 0 0-.4 21.4 21.4 0 0 0-.4-1.8 21.4 21.4 0 0 0-.1-.2 21.4 21.4 0 0 0-.5-1.8 21.4 21.4 0 0 0-.1-.3 21.4 21.4 0 0 0-.7-1.7 21.4 21.4 0 0 0-.2-.3 21.4 21.4 0 0 0-.8-1.6 21.4 21.4 0 0 0-.2-.3 21.4 21.4 0 0 0-1-1.4 21.4 21.4 0 0 0-.2-.3 21.4 21.4 0 0 0-1-1.3 21.4 21.4 0 0 0-.4-.4 21.4 21.4 0 0 0-1.1-1 21.4 21.4 0 0 0-.5-.5 21.4 21.4 0 0 0-1-.9 21.4 21.4 0 0 0-.7-.4 21.4 21.4 0 0 0-1-.8 21.4 21.4 0 0 0-.6-.3 21.4 21.4 0 0 0-10.7-2.9A21.4 21.4 0 0 0 7.1 28.5" fill="none" stroke="#000" stroke-width="1.78126" stroke-linecap="round" stroke-linejoin="round"/><circle cx="39.2" cy="-10" r="5" transform="rotate(90)"/></svg>