<?xml version="1.0" encoding="utf-8"?>
<!-- Generator: Adobe Illustrator 18.0.0, SVG Export Plug-In . SVG Version: 6.00 Build 0)  -->
<!DOCTYPE svg PUBLIC "-//W3C//DTD SVG 1.1//EN" "http://www.w3.org/Graphics/SVG/1.1/DTD/svg11.dtd">
<svg version="1.1" id="Capa_1" xmlns="http://www.w3.org/2000/svg" xmlns:xlink="http://www.w3.org/1999/xlink" x="0px" y="0px"
	 viewBox="5.2 175.1 563.9 543.5" enable-background="new 5.2 175.1 563.9 543.5" xml:space="preserve">
<g>
	<path fill="#424A60" d="M439.8,215.7c-4.9-3-11.4-1.5-14.4,3.4c-3,4.9-1.5,11.3,3.4,14.4c74.8,46.1,119.5,125.9,119.5,213.6
		c0,21.6-2.8,43.2-8.4,64.2c-1.5,5.6,1.8,11.3,7.4,12.8c0.9,0.2,1.8,0.3,2.7,0.3c4.6,0,8.9-3.1,10.1-7.8c6-22.8,9.1-46.2,9.1-69.6
		C569.2,352.1,520.8,265.6,439.8,215.7z"/>
	<path fill="#424A60" d="M393.4,678.7c-30.4,12.6-62.7,19-95.8,19c-70.3,0-137.7-29.8-185.1-81.8c-3.9-4.3-10.5-4.6-14.8-0.7
		c-4.3,3.9-4.6,10.5-0.7,14.8c51.4,56.3,124.5,88.6,200.6,88.6c35.9,0,70.8-6.9,103.8-20.6c5.3-2.2,7.9-8.3,5.7-13.6
		C404.9,679,398.7,676.5,393.4,678.7z"/>
	<path fill="#424A60" d="M237.9,203.6c5.6-1.4,9-7,7.7-12.6c-1.4-5.6-7-9-12.6-7.7C118,211.4,35.2,309.6,26.9,427.7
		c-0.4,5.8,3.9,10.7,9.7,11.1c0.3,0,0.5,0,0.7,0c5.4,0,10-4.2,10.4-9.7C55.4,320.2,131.8,229.5,237.9,203.6z"/>
</g>
<circle fill="#7383BF" cx="67.9" cy="572.4" r="62.7"/>
<path fill="#424A60" d="M189.2,197.7c-5.3,2.3-7.7,8.4-5.4,13.7c2.3,5.3,8.4,7.7,13.7,5.4c80.6-34.9,171.6-25.6,243.5,24.6
	c17.7,12.4,33.8,27.1,47.8,43.7c3.7,4.4,10.3,5,14.7,1.2c0.7-0.6,1.3-1.3,1.8-2c2.7-3.8,2.5-9-0.6-12.7c-15.2-18-32.6-34-51.8-47.4
	C375.1,169.9,276.5,159.9,189.2,197.7z"/>
<path fill="#424A60" d="M568.2,470.9c0.5-5.8-3.7-10.8-9.5-11.3c-5.8-0.5-10.8,3.7-11.3,9.5c-7.7,87.5-59.2,163.1-137.6,202.4
	c-19.3,9.7-39.9,16.8-61.2,21.2c-5.6,1.2-9.3,6.7-8.1,12.4c0.2,0.9,0.5,1.8,0.9,2.5c2.1,4.1,6.7,6.5,11.5,5.5
	c23.1-4.8,45.4-12.5,66.3-23C504.1,647.6,559.8,565.7,568.2,470.9z"/>
</svg>
