<?xml version="1.0" encoding="utf-8"?>
<svg version="1.1" id="Capa_1" xmlns="http://www.w3.org/2000/svg" xmlns:xlink="http://www.w3.org/1999/xlink" x="0px" y="0px"
	 viewBox="5.4 90 601.3 612" enable-background="new 5.4 90 601.3 612" xml:space="preserve">
<circle fill="#7383BF" cx="69.8" cy="551.7" r="64.4"/>
<g>
	<path fill="#424A60" d="M451.5,185c-5.1-3.1-11.7-1.5-14.8,3.5c-3.1,5.1-1.5,11.7,3.5,14.8c76.9,47.3,122.8,129.4,122.8,219.6
		c0,22.2-2.9,44.4-8.6,66.1c-1.5,5.7,1.9,11.6,7.6,13.1c0.9,0.2,1.8,0.4,2.7,0.4c4.8,0,9.1-3.2,10.4-8c6.2-23.4,9.4-47.5,9.4-71.6
		C584.5,325.2,534.8,236.3,451.5,185z"/>
	<path fill="#424A60" d="M403.8,661c-31.3,12.9-64.4,19.5-98.5,19.5c-72.2,0-141.6-30.6-190.3-84.1c-4-4.4-10.8-4.7-15.2-0.7
		c-4.4,4-4.7,10.8-0.7,15.2c52.8,57.9,128,91.1,206.2,91.1c36.9,0,72.8-7.1,106.7-21.2c5.5-2.3,8.1-8.5,5.8-14
		C415.6,661.3,409.3,658.7,403.8,661z"/>
	<path fill="#424A60" d="M244,172.5c5.8-1.4,9.3-7.2,7.9-13c-1.4-5.8-7.2-9.3-13-7.9C120.7,180.6,35.6,281.5,27,402.9
		c-0.4,5.9,4,11,10,11.5c0.3,0,0.5,0,0.8,0c5.6,0,10.3-4.3,10.7-10C56.3,292.4,134.9,199.2,244,172.5z"/>
</g>
<path fill="#424A60" d="M213.8,158.7c-5.6,1.9-8.6,8-6.7,13.6c1.9,5.6,8,8.6,13.6,6.7c85.4-29.4,178-12.7,247.6,44.5
	c17.1,14.1,32.5,30.4,45.6,48.6c3.5,4.8,10.2,5.9,15,2.4c0.8-0.6,1.4-1.2,2-1.9c3-3.7,3.3-9.1,0.4-13.1
	c-14.2-19.7-30.8-37.4-49.3-52.7C406.6,144.9,306.3,126.9,213.8,158.7z"/>
<path fill="#424A60" d="M581.5,462.4c0.8-5.9-3.2-11.3-9.1-12.2c-5.9-0.8-11.3,3.2-12.2,9.1c-12.9,89.4-69.9,164.1-152.6,200
	c-20.4,8.8-41.9,15-64,18.3c-5.9,0.9-9.9,6.4-9,12.2c0.1,0.9,0.4,1.8,0.8,2.7c1.9,4.4,6.5,7.1,11.5,6.3c24-3.6,47.3-10.3,69.4-19.9
	C505.8,640.2,567.6,559.2,581.5,462.4z"/>
</svg>
