<?xml version="1.0" encoding="utf-8"?>
<!-- Generator: Adobe Illustrator 18.0.0, SVG Export Plug-In . SVG Version: 6.00 Build 0)  -->
<!DOCTYPE svg PUBLIC "-//W3C//DTD SVG 1.1//EN" "http://www.w3.org/Graphics/SVG/1.1/DTD/svg11.dtd">
<svg version="1.1" id="Capa_1" xmlns="http://www.w3.org/2000/svg" xmlns:xlink="http://www.w3.org/1999/xlink" x="0px" y="0px"
	 viewBox="0 0 612 792" enable-background="new 0 0 612 792" xml:space="preserve">
<g>
	<path fill="#424A60" d="M439.7,202.9c-4.6-2.8-10.7-1.4-13.5,3.2c-2.8,4.6-1.4,10.6,3.2,13.5c70.4,43.4,112.4,118.4,112.4,200.9
		c0,20.3-2.6,40.6-7.9,60.4c-1.4,5.3,1.7,10.6,7,12c0.8,0.2,1.7,0.3,2.5,0.3c4.3,0,8.4-2.9,9.5-7.3c5.6-21.4,8.6-43.5,8.6-65.5
		C561.5,331.2,515.9,249.9,439.7,202.9z"/>
	<path fill="#424A60" d="M396.1,638.5c-28.6,11.9-59,17.9-90.1,17.9c-66.1,0-129.5-28-174.1-77c-3.7-4-9.9-4.3-13.9-0.7
		c-4,3.7-4.3,9.9-0.7,13.9c48.4,53,117.1,83.3,188.7,83.3c33.8,0,66.6-6.5,97.6-19.4c5-2.1,7.4-7.8,5.4-12.8
		C406.9,638.8,401.1,636.4,396.1,638.5z"/>
	<path fill="#424A60" d="M249.8,191.5c5.3-1.3,8.5-6.6,7.2-11.9c-1.3-5.3-6.6-8.5-11.9-7.2C137,198.9,59.1,291.2,51.3,402.3
		c-0.4,5.5,3.7,10.1,9.1,10.4c0.3,0,0.5,0,0.7,0c5.1,0,9.4-4,9.8-9.1C78.1,301.2,150,215.9,249.8,191.5z"/>
</g>
<circle fill="#EBBA16" cx="306" cy="175" r="59"/>
<circle fill="#7383BF" cx="89.9" cy="538.5" r="59"/>
<circle fill="#43B05C" cx="522.1" cy="538.5" r="59"/>
<g>
	<g>
		<path fill="#D64545" stroke="#FFFFFF" stroke-width="14" stroke-miterlimit="10" d="M537.6,213h-17.9v-35.4
			c0-28.1-22.2-51.3-50.3-51.3H464c-28.1,0-50.5,23.2-50.5,51.3V213H397c-11,0-19.8,8.8-19.8,19.8v101.4c0,11,8.8,19.8,19.8,19.8
			h140.5c11,0,19.8-8.9,19.8-19.8V232.8C557.4,221.9,548.6,213,537.6,213z M487.5,213h-42v-35.4c0-10.3,8-19.2,18.3-19.2h5.4
			c10.3,0,18.2,8.8,18.2,19.2C487.5,177.6,487.5,213,487.5,213z"/>
	</g>
</g>
</svg>
