<svg xmlns="http://www.w3.org/2000/svg" viewBox="0 0 57 57" width="64" height="64"><path d="M7.1 28.5A21.4 21.4 0 0 1 28.5 7.1m10.7 40A21.4 21.4 0 0 1 10 39m29.2-29A21.4 21.4 0 0 1 47 39.2" fill="none" stroke="#000" stroke-width="4" stroke-linecap="round" stroke-linejoin="round"/><circle cx="28.5" cy="7.1" r="6.5"/><circle cx="39.2" cy="-10" r="6.5" transform="rotate(90)"/><circle cx="39.2" cy="-47" r="6.5" transform="rotate(90)"/><path d="M28.5 24.5a9 9 0 0 0-7.1 4 9.8 9.8 0 0 0 5 3.7l1.2-1.2a2.7 2.7 0 0 1 .9-5.2 2.7 2.7 0 0 1 2.4 1.4l1.4-1.7c-1.1-.6-2.4-1-3.8-1zm4.8 1.6l-2.1 2.5a2.7 2.7 0 0 1-2.3 2.5l-1.1 1.4h.7a9 9 0 0 0 7.1-4c-.7-1-1.5-1.7-2.3-2.4zm-4.8 1a1.3 1.3 0 0 0 0 2.7l1.3-1.4a1.3 1.3 0 0 0-1.3-1.2z"/><rect width="1.1" height="14" x="40.5" y="-4.7" ry=".4" rx=".4" transform="rotate(41.1)"/></svg>